<svg width="62" height="55" viewBox="0 0 62 55" fill="none" xmlns="http://www.w3.org/2000/svg">
<path fill-rule="evenodd" clip-rule="evenodd" d="M61.9997 27.4554C61.9997 41.2815 51.8758 52.7385 38.6451 54.8038C38.5967 48.8232 37.1899 43.1669 34.7207 38.1256C40.4386 37.9307 45.0142 33.2276 45.0142 27.4554C45.0142 21.7201 40.4965 17.04 34.829 16.7902C37.2618 11.7413 38.6306 6.0845 38.6461 0.106934C51.8768 2.17323 61.9997 13.6318 61.9997 27.4554Z" fill="#BD5FBE"/>
<path fill-rule="evenodd" clip-rule="evenodd" d="M33.1415 0C33.1415 9.42672 29.2152 17.9347 22.9089 23.9732C21.5296 25.2956 20.037 26.4991 18.4451 27.5683C15.0657 29.8384 11.2466 31.5025 7.14161 32.4048C4.84158 32.9109 2.45123 33.1771 0 33.1771V16.2956C8.99002 16.2956 16.2773 9.00008 16.2773 0H33.1415Z" fill="#BD5FBE"/>
<path fill-rule="evenodd" clip-rule="evenodd" d="M33.1406 54.9999H16.4256C16.3527 45.9799 9.02645 38.6904 0 38.6904C2.97821 38.6904 5.87807 38.3532 8.66215 37.7142C13.896 36.5152 18.7251 34.2516 22.9089 31.1621C29.1847 37.1727 33.1036 45.6277 33.1406 54.9999Z" fill="#BD5FBE"/>
</svg>
