<svg id="kanda" xmlns="http://www.w3.org/2000/svg" viewBox="0 0 62 55">
  <defs>
    <style>
      .cls-1 {
        fill: #fff;
        fill-rule: evenodd;
      }
    </style>
  </defs>
  <path id="Path_18" data-name="Path 18" class="cls-1" d="M62,27.455A27.677,27.677,0,0,1,38.645,54.8a38.525,38.525,0,0,0-3.924-16.678,10.677,10.677,0,0,0,.108-21.335A38.557,38.557,0,0,0,38.646.107,27.678,27.678,0,0,1,62,27.455Z"/>
  <path id="Path_19" data-name="Path 19" class="cls-1" d="M33.141,0A33.09,33.09,0,0,1,22.909,23.973a33.189,33.189,0,0,1-4.464,3.6A32.943,32.943,0,0,1,7.142,32.4,33.207,33.207,0,0,1,0,33.177V16.3A16.286,16.286,0,0,0,16.277,0Z"/>
  <path id="Path_20" data-name="Path 20" class="cls-1" d="M33.141,55H16.426A16.436,16.436,0,0,0,0,38.69a38.687,38.687,0,0,0,8.662-.976,38.414,38.414,0,0,0,14.247-6.552A33.091,33.091,0,0,1,33.141,55Z"/>
</svg>
