<svg width="29" height="25" viewBox="0 0 29 25" fill="none" xmlns="http://www.w3.org/2000/svg">
<mask id="path-1-outside-1" maskUnits="userSpaceOnUse" x="0" y="0" width="29" height="25" fill="black">
<rect fill="white" width="29" height="25"/>
<path d="M26.4834 21.8117L26.486 18.8175C27.361 18.5474 27.9967 17.7596 27.9975 16.8326L28 13.9369C28.0005 13.3815 27.7742 12.8586 27.363 12.4643C27.1142 12.2258 26.8164 12.0527 26.4917 11.9529L26.4942 8.9603C26.4947 8.38113 26.2588 7.83575 25.8299 7.42445C25.401 7.0132 24.8322 6.78685 24.2281 6.78727L20.963 6.78972L20.9661 3.17278C20.9667 2.59369 20.7307 2.04827 20.3018 1.63701C19.8729 1.22575 19.3042 0.999537 18.7004 1L6.20771 1.00983C3.35056 1.01198 1.02327 3.23787 1.0114 5.97535C1.01131 5.98109 1.01113 5.98682 1.01118 5.9926L1 19.0194C0.999956 19.0614 1.00422 19.1029 1.01263 19.1435C1.04501 20.4274 1.58169 21.6299 2.53221 22.5414C3.51313 23.482 4.81748 24 6.20521 24L24.216 23.986C25.4652 23.9852 26.4823 23.0098 26.4834 21.8117ZM25.8257 13.1263L25.8282 13.1263C26.0524 13.1261 26.2641 13.2106 26.4244 13.3643C26.5847 13.518 26.6728 13.721 26.6726 13.9359L26.6701 16.8316C26.6698 17.2795 26.2893 17.6442 25.8223 17.6447L23.1826 17.6466C23.1821 17.6466 23.1815 17.6465 23.1809 17.6465C23.1803 17.6466 23.1796 17.6466 23.179 17.6466L19.7828 17.6493C19.5586 17.6494 19.3469 17.5648 19.1866 17.4112C19.0263 17.2574 18.9382 17.0545 18.9384 16.8396L18.9408 13.944C18.9411 13.496 19.3213 13.1313 19.7888 13.1311L25.8257 13.1263ZM24.215 22.7133L6.20463 22.7273C5.17184 22.7273 4.20095 22.3417 3.47072 21.6415C2.74049 20.9413 2.33836 20.0103 2.3384 19.02C2.3384 18.981 2.33466 18.9425 2.32745 18.9048L2.33853 6.0096C2.33871 6.00429 2.33875 5.99902 2.33875 5.9937C2.34043 3.94905 4.07652 2.28432 6.20881 2.28271L18.7015 2.27288C18.9503 2.27267 19.1852 2.36646 19.3631 2.53707C19.5411 2.70768 19.6389 2.9331 19.6387 3.17176L19.6355 6.79078L6.20476 6.80124C6.20424 6.80124 6.20353 6.80115 6.20301 6.80115C5.97708 6.80128 5.76488 6.71711 5.60539 6.56418C5.44599 6.41133 5.35808 6.20772 5.3583 5.99125C5.35861 5.54325 5.73901 5.17848 6.20626 5.17814C6.24181 5.17814 6.27653 5.17456 6.31062 5.16945L14.6267 5.16958C14.9932 5.16954 15.2904 4.88464 15.2904 4.53316C15.2904 4.18173 14.9933 3.89682 14.6267 3.89665L6.21493 3.89657C6.17155 3.89657 6.12918 3.90083 6.08808 3.90851C4.94437 3.96795 4.032 4.87919 4.03103 5.9902C4.03054 6.54705 4.25634 7.07045 4.66679 7.46403C5.07641 7.85681 5.62105 8.07336 6.2005 8.07379C6.20173 8.07379 6.20283 8.07391 6.20406 8.074L24.2291 8.06012C24.4781 8.05995 24.7133 8.15378 24.8913 8.32443C25.0692 8.49504 25.167 8.72041 25.1668 8.95916L25.1644 11.8539L23.8494 11.8549L23.851 9.95853C23.8512 9.78957 23.7813 9.62744 23.6567 9.50796C23.5321 9.38848 23.363 9.3214 23.1868 9.32157L20.2961 9.32384C19.9295 9.32418 19.6327 9.60934 19.633 9.96081C19.6331 10.1364 19.7074 10.2952 19.8273 10.4103C19.9476 10.5256 20.1138 10.5969 20.2972 10.5966L22.5231 10.5949L22.522 11.8558L19.7875 11.8579C18.5896 11.8587 17.6142 12.794 17.6132 13.9428L17.6107 16.8386C17.6103 17.3939 17.8365 17.9169 18.2477 18.3112C18.6589 18.7055 19.2043 18.9224 19.7836 18.9221L22.5159 18.92L22.5148 20.1808L20.2868 20.1823C19.9203 20.1827 19.6233 20.4678 19.6236 20.8193C19.6237 20.9949 19.698 21.1538 19.818 21.2688C19.9382 21.3841 20.1044 21.4554 20.2878 21.4552L23.1785 21.4531C23.5446 21.4528 23.8414 21.1683 23.8417 20.8172L23.8433 18.919L25.1583 18.918L25.1559 21.8106C25.1556 22.308 24.7334 22.7129 24.215 22.7133Z"/>
<path d="M21.2942 16.8367C22.1283 16.836 22.8048 16.1874 22.8053 15.3877C22.8061 14.5881 22.1306 13.9404 21.2967 13.9411C20.4629 13.9418 19.7864 14.5904 19.7856 15.3901C19.7849 16.1897 20.4603 16.8374 21.2942 16.8367Z"/>
<path d="M17.4053 9.32626L14.5146 9.32845C14.148 9.32879 13.8511 9.61394 13.8514 9.96542C13.8516 10.141 13.9259 10.2999 14.0458 10.4149C14.166 10.5302 14.3323 10.6015 14.5157 10.6013L17.4063 10.599C17.7729 10.5987 18.0698 10.3135 18.0695 9.96204C18.0692 9.61065 17.7718 9.32588 17.4053 9.32626Z"/>
<path d="M11.6241 9.33069L8.73309 9.33296C8.36659 9.3333 8.06965 9.61846 8.07001 9.96998C8.07014 10.1455 8.14445 10.3045 8.26439 10.4195C8.38463 10.5348 8.55077 10.606 8.73424 10.6058L11.6252 10.6035C11.9917 10.6032 12.2887 10.318 12.2883 9.96652C12.288 9.61508 11.9906 9.33043 11.6241 9.33069Z"/>
<path d="M17.3962 20.1848L14.5055 20.187C14.139 20.1873 13.842 20.4723 13.8423 20.8238C13.8424 20.9994 13.9167 21.1584 14.0367 21.2734C14.1569 21.3887 14.323 21.4599 14.5065 21.4598L17.3972 21.4577C17.7637 21.4574 18.0606 21.1723 18.0604 20.8208C18.0601 20.4693 17.7628 20.1846 17.3962 20.1848Z"/>
<path d="M11.6147 20.1894L8.72411 20.1916C8.35757 20.1918 8.06063 20.477 8.06094 20.8285C8.06107 21.004 8.13533 21.163 8.25527 21.278C8.37552 21.3933 8.54161 21.4645 8.72512 21.4643L11.6158 21.4622C11.9823 21.4619 12.2792 21.1767 12.2789 20.8253C12.2786 20.4738 11.9812 20.1891 11.6147 20.1894Z"/>
<path d="M16.3789 4.98319C16.499 5.0984 16.665 5.16962 16.8483 5.16958L17.2813 5.16941C17.6479 5.16928 17.9449 4.88421 17.9448 4.53277C17.9447 4.18138 17.6475 3.89652 17.2809 3.89652L16.8479 3.89669C16.4814 3.89682 16.1843 4.18185 16.1844 4.53328C16.1846 4.70904 16.2589 4.86814 16.3789 4.98319Z"/>
</mask>
<path d="M26.4834 21.8117L26.486 18.8175C27.361 18.5474 27.9967 17.7596 27.9975 16.8326L28 13.9369C28.0005 13.3815 27.7742 12.8586 27.363 12.4643C27.1142 12.2258 26.8164 12.0527 26.4917 11.9529L26.4942 8.9603C26.4947 8.38113 26.2588 7.83575 25.8299 7.42445C25.401 7.0132 24.8322 6.78685 24.2281 6.78727L20.963 6.78972L20.9661 3.17278C20.9667 2.59369 20.7307 2.04827 20.3018 1.63701C19.8729 1.22575 19.3042 0.999537 18.7004 1L6.20771 1.00983C3.35056 1.01198 1.02327 3.23787 1.0114 5.97535C1.01131 5.98109 1.01113 5.98682 1.01118 5.9926L1 19.0194C0.999956 19.0614 1.00422 19.1029 1.01263 19.1435C1.04501 20.4274 1.58169 21.6299 2.53221 22.5414C3.51313 23.482 4.81748 24 6.20521 24L24.216 23.986C25.4652 23.9852 26.4823 23.0098 26.4834 21.8117ZM25.8257 13.1263L25.8282 13.1263C26.0524 13.1261 26.2641 13.2106 26.4244 13.3643C26.5847 13.518 26.6728 13.721 26.6726 13.9359L26.6701 16.8316C26.6698 17.2795 26.2893 17.6442 25.8223 17.6447L23.1826 17.6466C23.1821 17.6466 23.1815 17.6465 23.1809 17.6465C23.1803 17.6466 23.1796 17.6466 23.179 17.6466L19.7828 17.6493C19.5586 17.6494 19.3469 17.5648 19.1866 17.4112C19.0263 17.2574 18.9382 17.0545 18.9384 16.8396L18.9408 13.944C18.9411 13.496 19.3213 13.1313 19.7888 13.1311L25.8257 13.1263ZM24.215 22.7133L6.20463 22.7273C5.17184 22.7273 4.20095 22.3417 3.47072 21.6415C2.74049 20.9413 2.33836 20.0103 2.3384 19.02C2.3384 18.981 2.33466 18.9425 2.32745 18.9048L2.33853 6.0096C2.33871 6.00429 2.33875 5.99902 2.33875 5.9937C2.34043 3.94905 4.07652 2.28432 6.20881 2.28271L18.7015 2.27288C18.9503 2.27267 19.1852 2.36646 19.3631 2.53707C19.5411 2.70768 19.6389 2.9331 19.6387 3.17176L19.6355 6.79078L6.20476 6.80124C6.20424 6.80124 6.20353 6.80115 6.20301 6.80115C5.97708 6.80128 5.76488 6.71711 5.60539 6.56418C5.44599 6.41133 5.35808 6.20772 5.3583 5.99125C5.35861 5.54325 5.73901 5.17848 6.20626 5.17814C6.24181 5.17814 6.27653 5.17456 6.31062 5.16945L14.6267 5.16958C14.9932 5.16954 15.2904 4.88464 15.2904 4.53316C15.2904 4.18173 14.9933 3.89682 14.6267 3.89665L6.21493 3.89657C6.17155 3.89657 6.12918 3.90083 6.08808 3.90851C4.94437 3.96795 4.032 4.87919 4.03103 5.9902C4.03054 6.54705 4.25634 7.07045 4.66679 7.46403C5.07641 7.85681 5.62105 8.07336 6.2005 8.07379C6.20173 8.07379 6.20283 8.07391 6.20406 8.074L24.2291 8.06012C24.4781 8.05995 24.7133 8.15378 24.8913 8.32443C25.0692 8.49504 25.167 8.72041 25.1668 8.95916L25.1644 11.8539L23.8494 11.8549L23.851 9.95853C23.8512 9.78957 23.7813 9.62744 23.6567 9.50796C23.5321 9.38848 23.363 9.3214 23.1868 9.32157L20.2961 9.32384C19.9295 9.32418 19.6327 9.60934 19.633 9.96081C19.6331 10.1364 19.7074 10.2952 19.8273 10.4103C19.9476 10.5256 20.1138 10.5969 20.2972 10.5966L22.5231 10.5949L22.522 11.8558L19.7875 11.8579C18.5896 11.8587 17.6142 12.794 17.6132 13.9428L17.6107 16.8386C17.6103 17.3939 17.8365 17.9169 18.2477 18.3112C18.6589 18.7055 19.2043 18.9224 19.7836 18.9221L22.5159 18.92L22.5148 20.1808L20.2868 20.1823C19.9203 20.1827 19.6233 20.4678 19.6236 20.8193C19.6237 20.9949 19.698 21.1538 19.818 21.2688C19.9382 21.3841 20.1044 21.4554 20.2878 21.4552L23.1785 21.4531C23.5446 21.4528 23.8414 21.1683 23.8417 20.8172L23.8433 18.919L25.1583 18.918L25.1559 21.8106C25.1556 22.308 24.7334 22.7129 24.215 22.7133Z" fill="#BD5FBE"/>
<path d="M21.2942 16.8367C22.1283 16.836 22.8048 16.1874 22.8053 15.3877C22.8061 14.5881 22.1306 13.9404 21.2967 13.9411C20.4629 13.9418 19.7864 14.5904 19.7856 15.3901C19.7849 16.1897 20.4603 16.8374 21.2942 16.8367Z" fill="#BD5FBE"/>
<path d="M17.4053 9.32626L14.5146 9.32845C14.148 9.32879 13.8511 9.61394 13.8514 9.96542C13.8516 10.141 13.9259 10.2999 14.0458 10.4149C14.166 10.5302 14.3323 10.6015 14.5157 10.6013L17.4063 10.599C17.7729 10.5987 18.0698 10.3135 18.0695 9.96204C18.0692 9.61065 17.7718 9.32588 17.4053 9.32626Z" fill="#BD5FBE"/>
<path d="M11.6241 9.33069L8.73309 9.33296C8.36659 9.3333 8.06965 9.61846 8.07001 9.96998C8.07014 10.1455 8.14445 10.3045 8.26439 10.4195C8.38463 10.5348 8.55077 10.606 8.73424 10.6058L11.6252 10.6035C11.9917 10.6032 12.2887 10.318 12.2883 9.96652C12.288 9.61508 11.9906 9.33043 11.6241 9.33069Z" fill="#BD5FBE"/>
<path d="M17.3962 20.1848L14.5055 20.187C14.139 20.1873 13.842 20.4723 13.8423 20.8238C13.8424 20.9994 13.9167 21.1584 14.0367 21.2734C14.1569 21.3887 14.323 21.4599 14.5065 21.4598L17.3972 21.4577C17.7637 21.4574 18.0606 21.1723 18.0604 20.8208C18.0601 20.4693 17.7628 20.1846 17.3962 20.1848Z" fill="#BD5FBE"/>
<path d="M11.6147 20.1894L8.72411 20.1916C8.35757 20.1918 8.06063 20.477 8.06094 20.8285C8.06107 21.004 8.13533 21.163 8.25527 21.278C8.37552 21.3933 8.54161 21.4645 8.72512 21.4643L11.6158 21.4622C11.9823 21.4619 12.2792 21.1767 12.2789 20.8253C12.2786 20.4738 11.9812 20.1891 11.6147 20.1894Z" fill="#BD5FBE"/>
<path d="M16.3789 4.98319C16.499 5.0984 16.665 5.16962 16.8483 5.16958L17.2813 5.16941C17.6479 5.16928 17.9449 4.88421 17.9448 4.53277C17.9447 4.18138 17.6475 3.89652 17.2809 3.89652L16.8479 3.89669C16.4814 3.89682 16.1843 4.18185 16.1844 4.53328C16.1846 4.70904 16.2589 4.86814 16.3789 4.98319Z" fill="#BD5FBE"/>
<path d="M26.4834 21.8117L26.7233 21.812V21.8119L26.4834 21.8117ZM26.486 18.8175L26.4152 18.5883L26.2463 18.6405L26.2461 18.8173L26.486 18.8175ZM27.9975 16.8326L27.7576 16.8324V16.8324L27.9975 16.8326ZM28 13.9369L27.7601 13.9367V13.9367L28 13.9369ZM27.363 12.4643L27.529 12.2912L27.363 12.4643ZM26.4917 11.9529L26.2519 11.9527L26.2517 12.13L26.4212 12.1821L26.4917 11.9529ZM26.4942 8.9603L26.2543 8.96008V8.9601L26.4942 8.9603ZM25.8299 7.42445L25.6639 7.59759L25.8299 7.42445ZM24.2281 6.78727L24.2279 6.54741H24.2279L24.2281 6.78727ZM20.963 6.78972L20.7231 6.78951L20.7229 7.02977L20.9631 7.02959L20.963 6.78972ZM20.9661 3.17278L20.7263 3.17256V3.17257L20.9661 3.17278ZM18.7004 1L18.7002 0.760134H18.7002L18.7004 1ZM6.20771 1.00983L6.20789 1.2497H6.2079L6.20771 1.00983ZM1.0114 5.97535L1.25125 5.97903L1.25126 5.97639L1.0114 5.97535ZM1.01118 5.9926L1.25105 5.99281L1.25104 5.99078L1.01118 5.9926ZM1 19.0194L1.23987 19.0196L1.23987 19.0196L1 19.0194ZM1.01263 19.1435L1.25242 19.1374L1.25188 19.1159L1.2475 19.0948L1.01263 19.1435ZM2.53221 22.5414L2.69823 22.3682L2.53221 22.5414ZM6.20521 24L6.2052 24.2399H6.20539L6.20521 24ZM24.216 23.986L24.2159 23.7462H24.2159L24.216 23.986ZM25.8257 13.1263L25.8298 12.8864L25.8255 12.8864L25.8257 13.1263ZM25.8282 13.1263L25.8241 13.3662L25.8285 13.3662L25.8282 13.1263ZM26.4244 13.3643L26.2584 13.5375L26.4244 13.3643ZM26.6726 13.9359L26.9125 13.9361V13.9361L26.6726 13.9359ZM26.6701 16.8316L26.4303 16.8314V16.8315L26.6701 16.8316ZM25.8223 17.6447L25.8225 17.8846H25.8225L25.8223 17.6447ZM23.1826 17.6466V17.8865H23.1828L23.1826 17.6466ZM23.1809 17.6465V17.4067H23.172L23.1632 17.4073L23.1809 17.6465ZM23.179 17.6466V17.4068H23.1788L23.179 17.6466ZM19.7828 17.6493L19.7829 17.8891H19.783L19.7828 17.6493ZM19.1866 17.4112L19.3527 17.238L19.1866 17.4112ZM18.9384 16.8396L18.6985 16.8394V16.8394L18.9384 16.8396ZM18.9408 13.944L19.1807 13.9442V13.9441L18.9408 13.944ZM19.7888 13.1311L19.7889 13.3709H19.7889L19.7888 13.1311ZM24.215 22.7133L24.2149 22.4735H24.2148L24.215 22.7133ZM6.20463 22.7273V22.9672H6.20482L6.20463 22.7273ZM2.3384 19.02L2.57827 19.02V19.02H2.3384ZM2.32745 18.9048L2.08758 18.9045L2.08756 18.9274L2.09185 18.9498L2.32745 18.9048ZM2.33853 6.0096L2.09867 6.00166L2.09867 6.0094L2.33853 6.0096ZM2.33875 5.9937L2.09889 5.9935V5.9937H2.33875ZM6.20881 2.28271L6.20899 2.52258H6.209L6.20881 2.28271ZM18.7015 2.27288L18.7017 2.51275H18.7017L18.7015 2.27288ZM19.6387 3.17176L19.8786 3.17198V3.1719L19.6387 3.17176ZM19.6355 6.79078L19.6357 7.03064L19.8752 7.03046L19.8754 6.79099L19.6355 6.79078ZM6.20476 6.80124V7.04111H6.20495L6.20476 6.80124ZM6.20301 6.80115V6.56129H6.20287L6.20301 6.80115ZM5.60539 6.56418L5.43937 6.73731L5.60539 6.56418ZM5.3583 5.99125L5.59817 5.9915L5.59817 5.99142L5.3583 5.99125ZM6.20626 5.17814V4.93828L6.20609 4.93828L6.20626 5.17814ZM6.31062 5.16945L6.31063 4.92959L6.29277 4.92959L6.27511 4.93223L6.31062 5.16945ZM14.6267 5.16958L14.6267 5.40945H14.6267L14.6267 5.16958ZM15.2904 4.53316L15.5303 4.53319V4.53316H15.2904ZM14.6267 3.89665L14.6268 3.65679H14.6267L14.6267 3.89665ZM6.21493 3.89657L6.21493 3.6567H6.21493V3.89657ZM6.08808 3.90851L6.10053 4.14805L6.11646 4.14723L6.13214 4.1443L6.08808 3.90851ZM4.03103 5.9902L3.79116 5.98999V5.98999L4.03103 5.9902ZM4.66679 7.46403L4.83281 7.2909L4.66679 7.46403ZM6.2005 8.07379L6.20032 8.31365H6.2005V8.07379ZM6.20406 8.074L6.18767 8.3133L6.19595 8.31387L6.20425 8.31386L6.20406 8.074ZM24.2291 8.06012L24.2289 7.82025H24.2289L24.2291 8.06012ZM24.8913 8.32443L24.7253 8.49756L24.8913 8.32443ZM25.1668 8.95916L24.927 8.95894V8.95896L25.1668 8.95916ZM25.1644 11.8539L25.1646 12.0937L25.4041 12.0936L25.4043 11.8541L25.1644 11.8539ZM23.8494 11.8549L23.6095 11.8547L23.6093 12.0949L23.8496 12.0948L23.8494 11.8549ZM23.851 9.95853L24.0909 9.95874V9.95872L23.851 9.95853ZM23.1868 9.32157L23.187 9.56143H23.187L23.1868 9.32157ZM20.2961 9.32384L20.2959 9.08398H20.2959L20.2961 9.32384ZM19.633 9.96081L19.8729 9.96063V9.9606L19.633 9.96081ZM19.8273 10.4103L19.6613 10.5834L19.8273 10.4103ZM20.2972 10.5966L20.297 10.3568H20.297L20.2972 10.5966ZM22.5231 10.5949L22.763 10.5951L22.7632 10.3549L22.5229 10.355L22.5231 10.5949ZM22.522 11.8558L22.5222 12.0956L22.7616 12.0955L22.7618 11.856L22.522 11.8558ZM19.7875 11.8579L19.7877 12.0978H19.7877L19.7875 11.8579ZM17.6132 13.9428L17.8531 13.943V13.943L17.6132 13.9428ZM17.6107 16.8386L17.3708 16.8384V16.8384L17.6107 16.8386ZM19.7836 18.9221L19.7837 19.162H19.7838L19.7836 18.9221ZM22.5159 18.92L22.7558 18.9202L22.756 18.68L22.5158 18.6802L22.5159 18.92ZM22.5148 20.1808L22.515 20.4206L22.7545 20.4205L22.7547 20.181L22.5148 20.1808ZM20.2868 20.1823L20.2866 19.9425H20.2865L20.2868 20.1823ZM19.6236 20.8193L19.3837 20.8195V20.8195L19.6236 20.8193ZM19.818 21.2688L19.984 21.0957L19.818 21.2688ZM20.2878 21.4552L20.288 21.6951H20.288L20.2878 21.4552ZM23.1785 21.4531L23.1783 21.2132H23.1783L23.1785 21.4531ZM23.8417 20.8172L23.6018 20.817V20.817L23.8417 20.8172ZM23.8433 18.919L23.8431 18.6791L23.6036 18.6793L23.6034 18.9188L23.8433 18.919ZM25.1583 18.918L25.3982 18.9182L25.3984 18.6779L25.1581 18.6781L25.1583 18.918ZM25.1559 21.8106L24.916 21.8104V21.8104L25.1559 21.8106ZM21.2942 16.8367L21.294 16.5968L21.2942 16.8367ZM22.8053 15.3877L22.5655 15.3875V15.3875L22.8053 15.3877ZM21.2967 13.9411L21.2969 14.181H21.2969L21.2967 13.9411ZM19.7856 15.3901L20.0255 15.3904V15.3903L19.7856 15.3901ZM17.4053 9.32626L17.4055 9.56612H17.4055L17.4053 9.32626ZM14.5146 9.32845L14.5144 9.08858H14.5143L14.5146 9.32845ZM13.8514 9.96542L13.6116 9.96563V9.96566L13.8514 9.96542ZM14.0458 10.4149L13.8798 10.5881L14.0458 10.4149ZM14.5157 10.6013L14.5155 10.3615H14.5155L14.5157 10.6013ZM17.4063 10.599L17.4065 10.8389H17.4065L17.4063 10.599ZM18.0695 9.96204L18.3093 9.96183L18.0695 9.96204ZM11.6241 9.33069L11.6239 9.09082H11.6239L11.6241 9.33069ZM8.73309 9.33296L8.7329 9.0931H8.73287L8.73309 9.33296ZM8.07001 9.96998L8.30987 9.9698L8.30987 9.96974L8.07001 9.96998ZM8.26439 10.4195L8.4304 10.2463L8.26439 10.4195ZM8.73424 10.6058L8.73405 10.3659H8.73401L8.73424 10.6058ZM11.6252 10.6035L11.6254 10.8434H11.6254L11.6252 10.6035ZM12.2883 9.96652L12.0484 9.9667V9.96676L12.2883 9.96652ZM17.3962 20.1848L17.396 19.9449H17.396L17.3962 20.1848ZM14.5055 20.187L14.5053 19.9471H14.5053L14.5055 20.187ZM13.8423 20.8238L13.6024 20.824V20.824L13.8423 20.8238ZM14.0367 21.2734L14.2027 21.1003H14.2027L14.0367 21.2734ZM14.5065 21.4598L14.5067 21.6996H14.5067L14.5065 21.4598ZM17.3972 21.4577L17.3973 21.6975H17.3973L17.3972 21.4577ZM18.0604 20.8208L18.3002 20.8206L18.0604 20.8208ZM11.6147 20.1894L11.6145 19.9495H11.6145L11.6147 20.1894ZM8.72411 20.1916L8.72393 19.9517H8.72392L8.72411 20.1916ZM8.06094 20.8285L8.3008 20.8283L8.3008 20.8283L8.06094 20.8285ZM8.25527 21.278L8.42129 21.1049L8.25527 21.278ZM8.72512 21.4643L8.72529 21.7042H8.7253L8.72512 21.4643ZM11.6158 21.4622L11.6159 21.7021H11.6159L11.6158 21.4622ZM16.3789 4.98319L16.2128 5.15632L16.3789 4.98319ZM16.8483 5.16958L16.8484 5.40944H16.8484L16.8483 5.16958ZM17.2813 5.16941L17.2812 4.92954H17.2812L17.2813 5.16941ZM17.9448 4.53277L18.1847 4.53271V4.53268L17.9448 4.53277ZM17.2809 3.89652V3.65666H17.2808L17.2809 3.89652ZM16.8479 3.89669L16.848 4.13656H16.848L16.8479 3.89669ZM16.1844 4.53328L15.9445 4.53334V4.53352L16.1844 4.53328ZM26.7233 21.8119L26.7259 18.8177L26.2461 18.8173L26.2436 21.8115L26.7233 21.8119ZM26.5568 19.0467C27.5234 18.7483 28.2365 17.8739 28.2374 16.8328L27.7576 16.8324C27.757 17.6453 27.1986 18.3465 26.4152 18.5883L26.5568 19.0467ZM28.2374 16.8328L28.2399 13.9371L27.7601 13.9367L27.7576 16.8324L28.2374 16.8328ZM28.2399 13.9371C28.2404 13.3144 27.986 12.7294 27.529 12.2912L27.197 12.6374C27.5623 12.9878 27.7606 13.4487 27.7601 13.9367L28.2399 13.9371ZM27.529 12.2912C27.2528 12.0263 26.9221 11.8343 26.5622 11.7236L26.4212 12.1821C26.7106 12.2711 26.9757 12.4252 27.197 12.6374L27.529 12.2912ZM26.7316 11.953L26.7341 8.9605L26.2543 8.9601L26.2519 11.9527L26.7316 11.953ZM26.7341 8.96052C26.7346 8.31402 26.4707 7.70659 25.9959 7.25132L25.6639 7.59759C26.047 7.96492 26.2548 8.44824 26.2543 8.96008L26.7341 8.96052ZM25.9959 7.25132C25.5215 6.79643 24.8928 6.54694 24.2279 6.54741L24.2283 7.02714C24.7715 7.02676 25.2805 7.22996 25.6639 7.59759L25.9959 7.25132ZM24.2279 6.54741L20.9628 6.54985L20.9631 7.02959L24.2283 7.02714L24.2279 6.54741ZM21.2028 6.78993L21.206 3.17299L20.7263 3.17257L20.7231 6.78951L21.2028 6.78993ZM21.206 3.17299C21.2066 2.52654 20.9425 1.91908 20.4678 1.46388L20.1357 1.81014C20.5188 2.17746 20.7267 2.66084 20.7263 3.17256L21.206 3.17299ZM20.4678 1.46388C19.9934 1.00899 19.3648 0.759623 18.7002 0.760134L18.7006 1.23987C19.2435 1.23945 19.7524 1.44252 20.1357 1.81014L20.4678 1.46388ZM18.7002 0.760134L6.20753 0.769963L6.2079 1.2497L18.7006 1.23987L18.7002 0.760134ZM6.20753 0.769963C3.22786 0.772207 0.784023 3.09556 0.771531 5.97431L1.25126 5.97639C1.26253 3.38019 3.47327 1.25176 6.20789 1.2497L6.20753 0.769963ZM0.771557 5.97167C0.771544 5.97248 0.771244 5.98503 0.771315 5.99443L1.25104 5.99078C1.25104 5.99079 1.25103 5.99018 1.25107 5.98809C1.25109 5.98702 1.25111 5.98597 1.25114 5.98436C1.25117 5.9829 1.2512 5.98102 1.25123 5.97903L0.771557 5.97167ZM0.771308 5.9924L0.760133 19.0192L1.23987 19.0196L1.25104 5.99281L0.771308 5.9924ZM0.760133 19.0191C0.760072 19.0775 0.766012 19.1355 0.777753 19.1921L1.2475 19.0948C1.24244 19.0703 1.23984 19.0452 1.23987 19.0196L0.760133 19.0191ZM0.772837 19.1495C0.806853 20.4983 1.37115 21.7603 2.3662 22.7145L2.69823 22.3682C1.79223 21.4995 1.28317 20.3566 1.25242 19.1374L0.772837 19.1495ZM2.3662 22.7145C3.39282 23.6989 4.75706 24.2398 6.2052 24.2399L6.20521 23.7601C4.87791 23.7601 3.63345 23.265 2.69823 22.3682L2.3662 22.7145ZM6.20539 24.2399L24.2162 24.2259L24.2159 23.7462L6.20502 23.7601L6.20539 24.2399ZM24.2162 24.2259C25.5882 24.225 26.7221 23.1516 26.7233 21.812L26.2436 21.8115C26.2426 22.8679 25.3422 23.7454 24.2159 23.7462L24.2162 24.2259ZM25.8216 13.3661L25.8241 13.3661L25.8323 12.8865L25.8298 12.8864L25.8216 13.3661ZM25.8285 13.3662C25.9913 13.366 26.1432 13.427 26.2584 13.5375L26.5904 13.1912C26.3849 12.9941 26.1135 12.8862 25.828 12.8864L25.8285 13.3662ZM26.2584 13.5375C26.3732 13.6475 26.4329 13.7886 26.4328 13.9357L26.9125 13.9361C26.9127 13.6534 26.7962 13.3885 26.5904 13.1912L26.2584 13.5375ZM26.4328 13.9357L26.4303 16.8314L26.91 16.8318L26.9125 13.9361L26.4328 13.9357ZM26.4303 16.8315C26.4301 17.1376 26.1664 17.4045 25.8221 17.4048L25.8225 17.8846C26.4122 17.884 26.9096 17.4215 26.91 16.8318L26.4303 16.8315ZM25.8221 17.4048L23.1825 17.4068L23.1828 17.8865L25.8225 17.8846L25.8221 17.4048ZM23.1826 17.4068C23.1886 17.4068 23.1932 17.407 23.1955 17.4071C23.1976 17.4072 23.1995 17.4074 23.1987 17.4073C23.1986 17.4073 23.1964 17.4072 23.1937 17.407C23.1908 17.4069 23.1864 17.4067 23.1809 17.4067V17.8864C23.1757 17.8864 23.1715 17.8862 23.169 17.8861C23.1677 17.886 23.1666 17.886 23.166 17.8859C23.1656 17.8859 23.1654 17.8859 23.1652 17.8859C23.165 17.8859 23.1649 17.8859 23.1649 17.8859C23.1644 17.8858 23.1666 17.886 23.1689 17.8861C23.1715 17.8863 23.1764 17.8865 23.1826 17.8865V17.4068ZM23.1632 17.4073C23.1635 17.4073 23.1653 17.4072 23.1676 17.4071C23.1699 17.4069 23.1739 17.4068 23.179 17.4068V17.8865C23.1893 17.8865 23.1977 17.8858 23.1985 17.8858L23.1632 17.4073ZM23.1788 17.4068L19.7826 17.4094L19.783 17.8891L23.1792 17.8865L23.1788 17.4068ZM19.7826 17.4094C19.6197 17.4095 19.4677 17.3484 19.3527 17.238L19.0206 17.5843C19.2261 17.7813 19.4975 17.8893 19.7829 17.8891L19.7826 17.4094ZM19.3527 17.238C19.2378 17.1279 19.1781 16.9868 19.1782 16.8398L18.6985 16.8394C18.6983 17.1221 18.8148 17.387 19.0206 17.5843L19.3527 17.238ZM19.1807 13.9441C19.1809 13.6379 19.4442 13.3711 19.7889 13.3709L19.7886 12.8912C19.1984 12.8915 18.7013 13.354 18.701 13.9438L19.1807 13.9441ZM19.7889 13.3709L25.8259 13.3661L25.8255 12.8864L19.7886 12.8912L19.7889 13.3709ZM24.2148 22.4735L6.20445 22.4874L6.20482 22.9672L24.2152 22.9532L24.2148 22.4735ZM6.20463 22.4874C5.23227 22.4874 4.32127 22.1248 3.63674 21.4684L3.3047 21.8146C4.08062 22.5587 5.11141 22.9672 6.20463 22.9672V22.4874ZM3.63674 21.4684C2.95254 20.8123 2.57823 19.9433 2.57827 19.02L2.09854 19.02C2.09849 20.0772 2.52845 21.0703 3.3047 21.8146L3.63674 21.4684ZM2.57827 19.02C2.57827 18.9656 2.57305 18.912 2.56304 18.8597L2.09185 18.9498C2.09627 18.9729 2.09854 18.9964 2.09854 19.02H2.57827ZM2.56731 18.905L2.5784 6.00981L2.09867 6.0094L2.08758 18.9045L2.56731 18.905ZM2.57827 6.01754C2.57857 6.00843 2.57862 6.00018 2.57862 5.9937H2.09889C2.09889 5.99785 2.09885 6.00015 2.0988 6.00167L2.57827 6.01754ZM2.57862 5.9939C2.58018 4.09094 4.19946 2.52409 6.20899 2.52258L6.20863 2.04285C3.95358 2.04454 2.10067 3.80716 2.09889 5.9935L2.57862 5.9939ZM6.209 2.52258L18.7017 2.51275L18.7013 2.03302L6.20862 2.04285L6.209 2.52258ZM18.7017 2.51275C18.8892 2.51259 19.0644 2.58292 19.1971 2.7102L19.5291 2.36394C19.306 2.15 19.0114 2.03276 18.7013 2.03302L18.7017 2.51275ZM19.1971 2.7102C19.3295 2.83716 19.399 3.00068 19.3989 3.17163L19.8786 3.1719C19.8788 2.86552 19.7526 2.5782 19.5291 2.36394L19.1971 2.7102ZM19.3989 3.17155L19.3956 6.79056L19.8754 6.79099L19.8786 3.17198L19.3989 3.17155ZM19.6353 6.55091L6.20458 6.56137L6.20495 7.04111L19.6357 7.03064L19.6353 6.55091ZM6.20476 6.56137C6.21062 6.56137 6.21518 6.5616 6.21718 6.5617C6.21918 6.56181 6.22089 6.56193 6.22038 6.5619C6.22036 6.5619 6.22021 6.56189 6.22004 6.56187C6.21986 6.56186 6.21959 6.56184 6.21926 6.56182C6.21862 6.56178 6.21757 6.56171 6.21627 6.56164C6.21397 6.56152 6.20912 6.56129 6.20301 6.56129V7.04102C6.19715 7.04102 6.19259 7.0408 6.19059 7.04069C6.18859 7.04058 6.18688 7.04046 6.18739 7.0405C6.18741 7.0405 6.18756 7.04051 6.18773 7.04052C6.18791 7.04053 6.18818 7.04055 6.18851 7.04057C6.18915 7.04061 6.1902 7.04068 6.1915 7.04075C6.1938 7.04087 6.19865 7.04111 6.20476 7.04111V6.56137ZM6.20287 6.56129C6.03734 6.56138 5.88511 6.50008 5.7714 6.39105L5.43937 6.73731C5.64464 6.93415 5.91681 7.04118 6.20314 7.04102L6.20287 6.56129ZM5.7714 6.39105C5.65808 6.28238 5.59801 6.14093 5.59817 5.9915L5.11843 5.99101C5.11814 6.27452 5.23389 6.54028 5.43937 6.73731L5.7714 6.39105ZM5.59817 5.99142C5.59838 5.68515 5.86193 5.41826 6.20643 5.41801L6.20609 4.93828C5.61608 4.9387 5.11884 5.40135 5.11843 5.99109L5.59817 5.99142ZM6.20626 5.41801C6.2577 5.41801 6.30505 5.41283 6.34614 5.40668L6.27511 4.93223C6.248 4.93629 6.22592 4.93828 6.20626 4.93828V5.41801ZM6.31062 5.40932L14.6267 5.40945L14.6267 4.92971L6.31063 4.92959L6.31062 5.40932ZM14.6267 5.40945C15.116 5.40939 15.5302 5.02652 15.5303 4.53319L15.0505 4.53313C15.0505 4.74275 14.8703 4.92969 14.6267 4.92971L14.6267 5.40945ZM15.5303 4.53316C15.5303 4.03983 15.1162 3.65701 14.6268 3.65679L14.6266 4.13652C14.8704 4.13663 15.0505 4.32363 15.0505 4.53316H15.5303ZM14.6267 3.65679L6.21493 3.6567L6.21493 4.13644L14.6267 4.13652L14.6267 3.65679ZM6.21493 3.6567C6.15579 3.6567 6.09866 3.66252 6.04403 3.67272L6.13214 4.1443C6.1597 4.13915 6.1873 4.13644 6.21493 4.13644V3.6567ZM6.07563 3.66897C4.81415 3.73453 3.79225 4.74202 3.79116 5.98999L4.27089 5.99041C4.27174 5.01636 5.07459 4.20138 6.10053 4.14805L6.07563 3.66897ZM3.79116 5.98999C3.79062 6.61383 4.04423 7.19938 4.50077 7.63716L4.83281 7.2909C4.46845 6.94151 4.27047 6.48026 4.27089 5.99041L3.79116 5.98999ZM4.50077 7.63716C4.95604 8.07371 5.5605 8.31319 6.20032 8.31365L6.20067 7.83392C5.6816 7.83354 5.19678 7.63991 4.83281 7.2909L4.50077 7.63716ZM6.2005 8.31365C6.19296 8.31365 6.18715 8.31326 6.18499 8.3131C6.1841 8.31304 6.18324 8.31297 6.18398 8.31303C6.18432 8.31305 6.18584 8.31318 6.18767 8.3133L6.22045 7.83469C6.22167 7.83477 6.22259 7.83485 6.22234 7.83483C6.22232 7.83483 6.2223 7.83483 6.22226 7.83482C6.22222 7.83482 6.22216 7.83481 6.2221 7.83481C6.22198 7.8348 6.22178 7.83478 6.22156 7.83477C6.22112 7.83473 6.22042 7.83468 6.21957 7.83462C6.21624 7.83438 6.20927 7.83392 6.2005 7.83392V8.31365ZM24.2292 8.29998C24.4171 8.29986 24.5925 8.37028 24.7253 8.49756L25.0573 8.1513C24.8341 7.93727 24.5391 7.82004 24.2289 7.82025L24.2292 8.29998ZM24.7253 8.49756C24.8577 8.62455 24.9271 8.788 24.927 8.95894L25.4067 8.95938C25.407 8.65283 25.2807 8.36554 25.0573 8.1513L24.7253 8.49756ZM24.927 8.95896L24.9245 11.8537L25.4043 11.8541L25.4067 8.95936L24.927 8.95896ZM25.1642 11.614L23.8492 11.615L23.8496 12.0948L25.1646 12.0937L25.1642 11.614ZM24.0893 11.8551L24.0909 9.95874L23.6112 9.95833L23.6095 11.8547L24.0893 11.8551ZM24.0909 9.95872C24.0911 9.72279 23.9934 9.49851 23.8227 9.33482L23.4906 9.68109C23.5691 9.75636 23.6113 9.85634 23.6112 9.95835L24.0909 9.95872ZM23.8227 9.33482C23.6524 9.1715 23.4233 9.08147 23.1865 9.0817L23.187 9.56143C23.3027 9.56132 23.4118 9.60545 23.4906 9.68109L23.8227 9.33482ZM23.1866 9.0817L20.2959 9.08398L20.2963 9.56371L23.187 9.56143L23.1866 9.0817ZM20.2959 9.08398C19.8065 9.08443 19.3927 9.46768 19.3931 9.96102L19.8729 9.9606C19.8727 9.751 20.0526 9.56394 20.2964 9.56371L20.2959 9.08398ZM19.3931 9.96099C19.3933 10.206 19.4974 10.4262 19.6613 10.5834L19.9934 10.2371C19.9174 10.1643 19.873 10.0667 19.8729 9.96063L19.3931 9.96099ZM19.6613 10.5834C19.8255 10.7408 20.051 10.8368 20.2975 10.8365L20.297 10.3568C20.1766 10.3569 20.0697 10.3103 19.9934 10.2371L19.6613 10.5834ZM20.2974 10.8365L22.5233 10.8348L22.5229 10.355L20.297 10.3568L20.2974 10.8365ZM22.2832 10.5947L22.2821 11.8556L22.7618 11.856L22.763 10.5951L22.2832 10.5947ZM22.5218 11.6159L19.7873 11.618L19.7877 12.0978L22.5222 12.0956L22.5218 11.6159ZM19.7874 11.618C18.4667 11.6189 17.3744 12.6521 17.3733 13.9426L17.8531 13.943C17.8539 12.9359 18.7126 12.0985 19.7877 12.0978L19.7874 11.618ZM17.3708 16.8384C17.3703 17.4611 17.6247 18.0461 18.0817 18.4844L18.4138 18.1381C18.0484 17.7878 17.8502 17.3268 17.8506 16.8388L17.3708 16.8384ZM18.0817 18.4844C18.5385 18.9223 19.1437 19.1623 19.7837 19.162L19.7835 18.6823C19.2649 18.6825 18.7794 18.4887 18.4138 18.1381L18.0817 18.4844ZM19.7838 19.162L22.5161 19.1599L22.5158 18.6802L19.7834 18.6823L19.7838 19.162ZM22.2761 18.9198L22.275 20.1805L22.7547 20.181L22.7558 18.9202L22.2761 18.9198ZM22.5147 19.9409L20.2866 19.9425L20.2869 20.4222L22.515 20.4206L22.5147 19.9409ZM20.2865 19.9425C19.7972 19.9429 19.3834 20.3261 19.3837 20.8195L19.8635 20.8192C19.8633 20.6095 20.0434 20.4224 20.287 20.4222L20.2865 19.9425ZM19.3837 20.8195C19.3839 21.0646 19.488 21.2847 19.652 21.4419L19.984 21.0957C19.908 21.0229 19.8635 20.9252 19.8635 20.8191L19.3837 20.8195ZM19.652 21.4419C19.8161 21.5994 20.0416 21.6953 20.288 21.6951L20.2877 21.2154C20.1672 21.2155 20.0603 21.1689 19.984 21.0957L19.652 21.4419ZM20.288 21.6951L23.1787 21.693L23.1783 21.2132L20.2876 21.2154L20.288 21.6951ZM23.1787 21.693C23.6676 21.6926 24.0812 21.3102 24.0815 20.8174L23.6018 20.817C23.6016 21.0264 23.4217 21.2131 23.1783 21.2132L23.1787 21.693ZM24.0815 20.8174L24.0831 18.9192L23.6034 18.9188L23.6018 20.817L24.0815 20.8174ZM23.8434 19.1589L25.1585 19.1578L25.1581 18.6781L23.8431 18.6791L23.8434 19.1589ZM24.9184 18.9178L24.916 21.8104L25.3957 21.8108L25.3982 18.9182L24.9184 18.9178ZM24.916 21.8104C24.9158 22.1662 24.6103 22.4732 24.2149 22.4735L24.2152 22.9532C24.8564 22.9527 25.3954 22.4498 25.3957 21.8107L24.916 21.8104ZM21.2944 17.0766C22.2513 17.0758 23.0446 16.3293 23.0452 15.3879L22.5655 15.3875C22.565 16.0454 22.0054 16.5962 21.294 16.5968L21.2944 17.0766ZM23.0452 15.3879C23.0461 14.4463 22.2534 13.7004 21.2965 13.7013L21.2969 14.181C22.0078 14.1804 22.5661 14.7299 22.5655 15.3875L23.0452 15.3879ZM21.2966 13.7013C20.3399 13.702 19.5467 14.4485 19.5458 15.3899L20.0255 15.3903C20.0261 14.7323 20.5858 14.1815 21.2969 14.181L21.2966 13.7013ZM19.5458 15.3899C19.5448 16.3315 20.3375 17.0773 21.2944 17.0766L21.294 16.5968C20.5831 16.5974 20.0249 16.0478 20.0255 15.3904L19.5458 15.3899ZM17.4051 9.08639L14.5144 9.08858L14.5147 9.56832L17.4055 9.56612L17.4051 9.08639ZM14.5143 9.08858C14.0249 9.08903 13.6111 9.47228 13.6116 9.96563L14.0913 9.96521C14.0911 9.7556 14.2711 9.56854 14.5148 9.56832L14.5143 9.08858ZM13.6116 9.96566C13.6118 10.2107 13.7158 10.4308 13.8798 10.5881L14.2119 10.2418C14.1359 10.169 14.0914 10.0713 14.0913 9.96518L13.6116 9.96566ZM13.8798 10.5881C14.044 10.7455 14.2695 10.8414 14.516 10.8412L14.5155 10.3615C14.3951 10.3616 14.2881 10.3149 14.2119 10.2418L13.8798 10.5881ZM14.5159 10.8412L17.4065 10.8389L17.4061 10.3591L14.5155 10.3615L14.5159 10.8412ZM17.4065 10.8389C17.896 10.8384 18.3098 10.4552 18.3093 9.96183L17.8296 9.96225C17.8298 10.1719 17.6498 10.3589 17.4061 10.3591L17.4065 10.8389ZM18.3093 9.96183C18.3089 9.46864 17.8946 9.08588 17.405 9.08639L17.4055 9.56612C17.6491 9.56587 17.8294 9.75266 17.8296 9.96225L18.3093 9.96183ZM11.6239 9.09082L8.7329 9.0931L8.73328 9.57283L11.6243 9.57055L11.6239 9.09082ZM8.73287 9.0931C8.24352 9.09355 7.82964 9.47679 7.83014 9.97022L8.30987 9.96974C8.30966 9.76013 8.48967 9.57306 8.73331 9.57283L8.73287 9.0931ZM7.83014 9.97016C7.83032 10.2152 7.93443 10.4354 8.09837 10.5926L8.4304 10.2463C8.35447 10.1735 8.30995 10.0758 8.30987 9.9698L7.83014 9.97016ZM8.09837 10.5926C8.26257 10.75 8.48799 10.8459 8.73446 10.8457L8.73401 10.3659C8.61354 10.3661 8.50669 10.3195 8.4304 10.2463L8.09837 10.5926ZM8.73442 10.8457L11.6254 10.8434L11.625 10.3637L8.73405 10.3659L8.73442 10.8457ZM11.6254 10.8434C12.1148 10.8429 12.5287 10.4597 12.5282 9.96628L12.0484 9.96676C12.0486 10.1764 11.8686 10.3634 11.625 10.3637L11.6254 10.8434ZM12.5282 9.96634C12.5278 9.47296 12.1132 9.09048 11.6239 9.09082L11.6242 9.57055C11.8679 9.57039 12.0483 9.75721 12.0484 9.9667L12.5282 9.96634ZM17.396 19.9449L14.5053 19.9471L14.5057 20.4268L17.3964 20.4247L17.396 19.9449ZM14.5053 19.9471C14.0159 19.9475 13.6021 20.3306 13.6024 20.824L14.0822 20.8237C14.082 20.614 14.262 20.427 14.5057 20.4268L14.5053 19.9471ZM13.6024 20.824C13.6026 21.0691 13.7067 21.2893 13.8707 21.4465L14.2027 21.1003C14.1268 21.0275 14.0822 20.9297 14.0822 20.8237L13.6024 20.824ZM13.8707 21.4465C14.0348 21.604 14.2602 21.6998 14.5067 21.6996L14.5064 21.2199C14.3858 21.22 14.2789 21.1734 14.2027 21.1003L13.8707 21.4465ZM14.5067 21.6996L17.3973 21.6975L17.397 21.2178L14.5063 21.2199L14.5067 21.6996ZM17.3973 21.6975C17.8867 21.6971 18.3006 21.314 18.3002 20.8206L17.8205 20.8209C17.8207 21.0306 17.6407 21.2176 17.397 21.2178L17.3973 21.6975ZM18.3002 20.8206C18.2999 20.3273 17.8855 19.9446 17.396 19.9449L17.3963 20.4247C17.64 20.4245 17.8203 20.6114 17.8205 20.8209L18.3002 20.8206ZM11.6145 19.9495L8.72393 19.9517L8.72429 20.4314L11.6148 20.4292L11.6145 19.9495ZM8.72392 19.9517C8.23451 19.9521 7.82064 20.3353 7.82107 20.8287L8.3008 20.8283C8.30062 20.6187 8.48062 20.4316 8.7243 20.4314L8.72392 19.9517ZM7.82107 20.8287C7.82125 21.0737 7.92527 21.2939 8.08926 21.4511L8.42129 21.1049C8.3454 21.0321 8.30088 20.9344 8.3008 20.8283L7.82107 20.8287ZM8.08926 21.4511C8.25348 21.6086 8.47885 21.7044 8.72529 21.7042L8.72496 21.2245C8.60437 21.2246 8.49755 21.178 8.42129 21.1049L8.08926 21.4511ZM8.7253 21.7042L11.6159 21.7021L11.6156 21.2224L8.72495 21.2245L8.7253 21.7042ZM11.6159 21.7021C12.1054 21.7017 12.5192 21.3184 12.5187 20.8251L12.039 20.8255C12.0392 21.0351 11.8592 21.2222 11.6156 21.2224L11.6159 21.7021ZM12.5187 20.8251C12.5183 20.3317 12.1039 19.9492 11.6145 19.9495L11.6148 20.4292C11.8585 20.4291 12.0388 20.6158 12.039 20.8255L12.5187 20.8251ZM16.2128 5.15632C16.3769 5.31364 16.6021 5.4095 16.8484 5.40944L16.8482 4.92971C16.7279 4.92974 16.6211 4.88317 16.5449 4.81005L16.2128 5.15632ZM16.8484 5.40944L17.2814 5.40927L17.2812 4.92954L16.8482 4.92971L16.8484 5.40944ZM17.2814 5.40927C17.7709 5.40911 18.1848 5.02597 18.1847 4.53271L17.7049 4.53284C17.705 4.74244 17.5249 4.92946 17.2812 4.92954L17.2814 5.40927ZM18.1847 4.53268C18.1845 4.03945 17.7703 3.65666 17.2809 3.65666V4.13639C17.5247 4.13639 17.7049 4.32332 17.7049 4.53287L18.1847 4.53268ZM17.2808 3.65666L16.8478 3.65682L16.848 4.13656L17.281 4.13639L17.2808 3.65666ZM16.8478 3.65682C16.3584 3.65699 15.9444 4.04004 15.9445 4.53334L16.4242 4.53322C16.4242 4.32365 16.6043 4.13664 16.848 4.13656L16.8478 3.65682ZM15.9445 4.53352C15.9448 4.77865 16.0488 4.999 16.2128 5.15632L16.5449 4.81005C16.469 4.73727 16.4244 4.63943 16.4242 4.53304L15.9445 4.53352ZM19.1782 16.8398L19.1807 13.9442L18.701 13.9438L18.6985 16.8394L19.1782 16.8398ZM6.20425 8.31386L24.2293 8.29998L24.2289 7.82025L6.20388 7.83413L6.20425 8.31386ZM17.3733 13.9426L17.3708 16.8384L17.8506 16.8388L17.8531 13.943L17.3733 13.9426Z" fill="#BD5FBE" mask="url(#path-1-outside-1)"/>
</svg>
